<svg width="389" height="240" viewBox="0 0 389 240" fill="none" xmlns="http://www.w3.org/2000/svg">
<path fill-rule="evenodd" clip-rule="evenodd" d="M182.421 140.828H247.874C253.82 140.828 255.222 137.697 250.991 133.835L215.508 101.446C211.259 97.5682 204.417 97.5843 200.186 101.446L182.444 117.64L178.553 114.089C174.307 110.213 167.469 110.23 163.241 114.089L141.603 133.839C137.357 137.715 138.794 140.828 144.772 140.828H182.421ZM17.7554 224.13C19.6893 225.816 22.3062 226.849 25.187 226.849H363.813C366.967 226.849 369.802 225.61 371.772 223.635L265.127 160.833C264.291 160.341 264.051 159.324 264.59 158.561C265.129 157.798 266.244 157.579 267.079 158.071L373.721 220.87C374.282 219.674 374.593 218.356 374.593 216.971V120V23.0292C374.593 20.7597 373.76 18.6713 372.36 17.005L267.079 79.0031C266.244 79.4953 265.129 79.2759 264.59 78.513C264.051 77.7501 264.291 76.7327 265.127 76.2405L369.623 14.7045C367.946 13.7207 365.952 13.1507 363.813 13.1507H25.187C23.4799 13.1507 21.8664 13.5135 20.4329 14.1595L125.24 75.879C126.076 76.3712 126.316 77.3886 125.777 78.1515C125.238 78.9143 124.123 79.1338 123.288 78.6416L17.342 16.2518C15.522 18.0207 14.4074 20.4055 14.4074 23.0292V216.971C14.4074 218.6 14.8363 220.135 15.5962 221.489L123.288 158.071C124.123 157.579 125.238 157.798 125.777 158.561C126.316 159.324 126.076 160.341 125.24 160.833L17.7554 224.13ZM0 23.0292C0 10.3213 11.2578 0 25.187 0H363.813C377.738 0 389 10.315 389 23.0292V216.971C389 229.679 377.742 240 363.813 240H25.187C11.2625 240 0 229.685 0 216.971V23.0292ZM152.422 102.885C157.524 102.885 161.66 99.1101 161.66 94.4535C161.66 89.7968 157.524 86.0218 152.422 86.0218C147.321 86.0218 143.185 89.7968 143.185 94.4535C143.185 99.1101 147.321 102.885 152.422 102.885Z" fill="#333333"/>
</svg>
